<?xml version="1.0" encoding="utf-8"?>
<!-- Generator: Adobe Illustrator 18.0.0, SVG Export Plug-In . SVG Version: 6.00 Build 0)  -->
<!DOCTYPE svg PUBLIC "-//W3C//DTD SVG 1.1//EN" "http://www.w3.org/Graphics/SVG/1.1/DTD/svg11.dtd">
<svg version="1.1" id="Layer_1" xmlns="http://www.w3.org/2000/svg" xmlns:xlink="http://www.w3.org/1999/xlink" x="0px" y="0px"
	 viewBox="0 -0.7 552.3 91.4" enable-background="new 0 -0.7 552.3 91.4" xml:space="preserve">
<g>
	<path d="M54.8,35c-2.1,7.5-4.1,15.1-5.9,22.7c-0.8,3.5-1.6,7.1-2.5,10.7c-0.9-3.6-1.7-7.2-2.6-10.7c-1.9-7.7-4-15.2-6.2-22.7
		L27.3,0.5H0l29.8,88.9h32.9L91.6,0.5h-27L54.8,35z"/>
	<polygon points="111.3,89.4 176.3,89.4 176.3,69.6 135.6,69.6 135.6,54.2 173.1,54.2 173.1,35 135.6,35 135.6,20.3 176.5,20.3 
		176.5,0.5 111.3,0.5 	"/>
	<polygon points="224.7,0.5 200.4,0.5 200.4,89.4 261.1,89.4 261.1,69.6 224.7,69.6 	"/>
	<path d="M334.8,4.5C328.3,1,321-0.7,312.9-0.7c-8.1,0-15.4,1.8-21.9,5.2c-6.5,3.5-11.7,8.6-15.5,15.4c-3.8,6.8-5.7,15.1-5.7,25
		c0,9.8,1.9,18.1,5.7,24.9c3.8,6.8,9,11.9,15.5,15.4c6.5,3.5,13.8,5.3,21.9,5.3c8.1,0,15.4-1.8,21.9-5.2c6.5-3.5,11.7-8.6,15.5-15.4
		c3.8-6.8,5.8-15.1,5.8-25c0-9.9-1.9-18.3-5.8-25C346.5,13.2,341.3,8,334.8,4.5z M329.2,58.4c-1.4,3.7-3.4,6.4-6.1,8.3
		c-2.7,1.9-6.1,2.8-10.1,2.8c-3.9,0-7.3-0.9-10-2.8c-2.7-1.9-4.8-4.7-6.2-8.3c-1.4-3.7-2.1-8.1-2.1-13.4c0-5.3,0.7-9.8,2.1-13.4
		c1.4-3.7,3.5-6.5,6.2-8.4c2.7-1.9,6.1-2.8,10-2.8c4,0,7.4,0.9,10.1,2.8c2.7,1.9,4.8,4.7,6.1,8.4c1.4,3.7,2.1,8.2,2.1,13.4
		C331.2,50.3,330.5,54.7,329.2,58.4z"/>
	<path d="M438.7,47c2.8-4.4,4.3-9.8,4.3-16.1c0-6.3-1.4-11.7-4.1-16.3c-2.8-4.6-6.7-8-11.7-10.5c-5-2.4-10.9-3.6-17.6-3.6h-38.2
		v88.9h24.3v-29h9l15.1,29h26.1l-17.7-33.1C432.6,54,436.2,50.9,438.7,47z M395.7,20h9.1c2.8,0,5.2,0.4,7.1,1.2c2,0.8,3.5,2,4.6,3.6
		c1.1,1.6,1.6,3.6,1.6,6.1c0,2.5-0.5,4.5-1.6,6.1c-1.1,1.6-2.6,2.7-4.6,3.5c-2,0.8-4.3,1.1-7.1,1.1h-9.1V20z"/>
	<path d="M524.8,89.4h27.4L522.3,0.5h-33l-29,88.9h27l4.8-16.5h27.9L524.8,89.4z M505.6,20.9c0.9,3.7,1.8,7.4,2.7,11
		c1.9,7.8,4,15.4,6.1,22.8h-17.2c2.2-7.4,4.1-15,5.9-22.8C504,28.2,504.8,24.5,505.6,20.9z"/>
</g>
</svg>
